solid OpenSCAD_Model
  facet normal -1.22465e-16 -1 -2.54072e-33
    outer loop
      vertex -17.5 -17 -52.5
      vertex -22.5 -17 -52.5
      vertex -22.5 -17 -54.5
    endloop
  endfacet
  facet normal -1.22465e-16 -1 -2.54072e-33
    outer loop
      vertex -17.5 -17 -54.5
      vertex -17.5 -17 -52.5
      vertex -22.5 -17 -54.5
    endloop
  endfacet
  facet normal -1 1.22465e-16 -2.22045e-16
    outer loop
      vertex -22.5 -17 -52.5
      vertex -22.5 -17 -53.4972
      vertex -22.5 -17 -54.5
    endloop
  endfacet
  facet normal -1 1.22465e-16 -2.22045e-16
    outer loop
      vertex -22.5 -17 -52.5
      vertex -22.5 -15.1919 -52.5
      vertex -22.5 -17 -53.4972
    endloop
  endfacet
  facet normal -1 1.22465e-16 -2.22045e-16
    outer loop
      vertex -22.5 -17 -53.4972
      vertex -22.5 -17 -53.5
      vertex -22.5 -17 -54.5
    endloop
  endfacet
  facet normal -1 1.22465e-16 -2.22045e-16
    outer loop
      vertex -22.5 -7 -53.5
      vertex -22.5 -7 -52.5
      vertex -22.5 -0.5 -52.5
    endloop
  endfacet
  facet normal -1 1.22465e-16 -2.22045e-16
    outer loop
      vertex -22.5 -7 -53.5
      vertex -22.5 1.5 -56.5
      vertex -22.5 -17 -54.5
    endloop
  endfacet
  facet normal -1 1.22465e-16 -2.22045e-16
    outer loop
      vertex -22.5 -0.5 -52.5
      vertex -22.5 -0.5 -50.5
      vertex -22.5 1.5 -50.5
    endloop
  endfacet
  facet normal -1 1.22465e-16 -2.22045e-16
    outer loop
      vertex -22.5 -0.5 -52.5
      vertex -22.5 1.5 -50.5
      vertex -22.5 1.5 -56.5
    endloop
  endfacet
  facet normal -1 1.22465e-16 -2.22045e-16
    outer loop
      vertex -22.5 -0.5 -52.5
      vertex -22.5 1.5 -56.5
      vertex -22.5 -7 -53.5
    endloop
  endfacet
  facet normal -1 1.22465e-16 -2.22045e-16
    outer loop
      vertex -22.5 -17 -54.5
      vertex -22.5 1.5 -56.5
      vertex -22.5 -9.5 -56.5
    endloop
  endfacet
  facet normal -1 1.22465e-16 -2.22045e-16
    outer loop
      vertex -22.5 -7 -53.5
      vertex -22.5 -17 -54.5
      vertex -22.5 -17 -53.5
    endloop
  endfacet
  facet normal -1 0 0
    outer loop
      vertex -22.5 -17 -53.5
      vertex -22.5 -17 -53.4972
      vertex -22.5 -7 -53.5
    endloop
  endfacet
  facet normal -1 0 0
    outer loop
      vertex -22.5 -7 -53.5
      vertex -22.5 -17 -53.4972
      vertex -22.5 -15.1919 -52.5
    endloop
  endfacet
  facet normal -1 0 0
    outer loop
      vertex -22.5 -15.1919 -52.5
      vertex -22.5 -17 -52.5
      vertex -22.5 -17 5
    endloop
  endfacet
  facet normal -1 0 0
    outer loop
      vertex -22.5 -15.1919 -52.5
      vertex -22.5 -17 5
      vertex -22.5 -7 -53.5
    endloop
  endfacet
  facet normal -1 0 0
    outer loop
      vertex -22.5 -7 -17.8
      vertex -22.5 -17 5
      vertex -22.5 -7 5
    endloop
  endfacet
  facet normal -1 0 0
    outer loop
      vertex -22.5 -11 -17.8
      vertex -22.5 -17 5
      vertex -22.5 -7 -17.8
    endloop
  endfacet
  facet normal -1 0 0
    outer loop
      vertex -22.5 -11 -24.6
      vertex -22.5 -17 5
      vertex -22.5 -11 -17.8
    endloop
  endfacet
  facet normal -1 0 0
    outer loop
      vertex -22.5 -7 -53.5
      vertex -22.5 -17 5
      vertex -22.5 -11 -24.6
    endloop
  endfacet
  facet normal -1 0 0
    outer loop
      vertex -22.5 -7 -24.6
      vertex -22.5 -7 -53.5
      vertex -22.5 -11 -24.6
    endloop
  endfacet
  facet normal 0 -1 0
    outer loop
      vertex -2.15 -17 3.72391
      vertex 22.5 -17 5
      vertex -22.5 -17 5
    endloop
  endfacet
  facet normal 0 -1 0
    outer loop
      vertex -22.5 -17 5
      vertex -22.5 -17 -52.5
      vertex -17.5 -17 -52.5
    endloop
  endfacet
  facet normal 0 -1 0
    outer loop
      vertex -17.5 -17 -5
      vertex -22.5 -17 5
      vertex -17.5 -17 -52.5
    endloop
  endfacet
  facet normal 0 -1 0
    outer loop
      vertex -17.5 -17 -53.4972
      vertex -17.5 -17 -5
      vertex -17.5 -17 -52.5
    endloop
  endfacet
  facet normal 0 -1 0
    outer loop
      vertex 17.5 -17 -52.5
      vertex 22.5 -17 -52.5
      vertex 17.5 -17 -5
    endloop
  endfacet
  facet normal 0 -1 0
    outer loop
      vertex 22.5 -17 -52.5
      vertex 22.5 -17 5
      vertex 17.5 -17 -5
    endloop
  endfacet
  facet normal 0 -1 0
    outer loop
      vertex 22.5 -17 -53.4972
      vertex 22.5 -17 5
      vertex 22.5 -17 -52.5
    endloop
  endfacet
  facet normal 0 -1 0
    outer loop
      vertex -17.5 -17 -5
      vertex -2.15 -17 -3.72391
      vertex -22.5 -17 5
    endloop
  endfacet
  facet normal 0 -1 0
    outer loop
      vertex -17.5 -17 -5
      vertex 17.5 -17 -5
      vertex -2.15 -17 -3.72391
    endloop
  endfacet
  facet normal 0 -1 0
    outer loop
      vertex -2.15 -17 -3.72391
      vertex -4.3 -17 3.10862e-16
      vertex -22.5 -17 5
    endloop
  endfacet
  facet normal 0 -1 0
    outer loop
      vertex 2.15 -17 3.72391
      vertex 22.5 -17 5
      vertex -2.15 -17 3.72391
    endloop
  endfacet
  facet normal 0 -1 0
    outer loop
      vertex 4.3 -17 3.10862e-16
      vertex 2.15 -17 -3.72391
      vertex 17.5 -17 -5
    endloop
  endfacet
  facet normal 0 -1 0
    outer loop
      vertex 17.5 -17 -5
      vertex 22.5 -17 5
      vertex 2.15 -17 3.72391
    endloop
  endfacet
  facet normal 0 -1 0
    outer loop
      vertex 2.15 -17 3.72391
      vertex 4.3 -17 3.10862e-16
      vertex 17.5 -17 -5
    endloop
  endfacet
  facet normal 0 -1 0
    outer loop
      vertex -2.15 -17 -3.72391
      vertex 17.5 -17 -5
      vertex 2.15 -17 -3.72391
    endloop
  endfacet
  facet normal 0 -1 0
    outer loop
      vertex -4.3 -17 3.10862e-16
      vertex -2.15 -17 3.72391
      vertex -22.5 -17 5
    endloop
  endfacet
  facet normal 1 -1.22465e-16 2.22045e-16
    outer loop
      vertex -17.5 -17 -53.4972
      vertex -17.5 -17 -52.5
      vertex -17.5 -17 -54.5
    endloop
  endfacet
  facet normal 1 -1.22465e-16 2.22045e-16
    outer loop
      vertex -17.5 -15.1919 -52.5
      vertex -17.5 -17 -53.4972
      vertex -17.5 -9.5 -56.5
    endloop
  endfacet
  facet normal 1 -1.22465e-16 2.22045e-16
    outer loop
      vertex -17.5 -0.5 -52.5
      vertex -17.5 -15.1919 -52.5
      vertex -17.5 1.5 -56.5
    endloop
  endfacet
  facet normal 1 -1.22465e-16 2.22045e-16
    outer loop
      vertex -17.5 1.5 -50.5
      vertex -17.5 -0.5 -52.5
      vertex -17.5 1.5 -56.5
    endloop
  endfacet
  facet normal 1 -1.22465e-16 2.22045e-16
    outer loop
      vertex -17.5 -15.1919 -52.5
      vertex -17.5 -9.5 -56.5
      vertex -17.5 1.5 -56.5
    endloop
  endfacet
  facet normal 1 -1.22465e-16 2.22045e-16
    outer loop
      vertex -17.5 -9.5 -56.5
      vertex -17.5 -17 -53.4972
      vertex -17.5 -17 -54.5
    endloop
  endfacet
  facet normal 1 -1.22465e-16 2.22045e-16
    outer loop
      vertex -17.5 -0.5 -50.5
      vertex -17.5 -0.5 -52.5
      vertex -17.5 1.5 -50.5
    endloop
  endfacet
  facet normal 1.82993e-16 -0.257663 -0.966235
    outer loop
      vertex -22.5 -17 -54.5
      vertex -22.5 -9.5 -56.5
      vertex -17.5 -17 -54.5
    endloop
  endfacet
  facet normal 1.82993e-16 -0.257663 -0.966235
    outer loop
      vertex -17.5 -17 -54.5
      vertex -22.5 -9.5 -56.5
      vertex -17.5 -9.5 -56.5
    endloop
  endfacet
  facet normal 2.22045e-16 -2.71926e-32 -1
    outer loop
      vertex -22.5 -9.5 -56.5
      vertex -22.5 1.5 -56.5
      vertex -17.5 -9.5 -56.5
    endloop
  endfacet
  facet normal 2.22045e-16 -2.71926e-32 -1
    outer loop
      vertex -17.5 -9.5 -56.5
      vertex -22.5 1.5 -56.5
      vertex -17.5 1.5 -56.5
    endloop
  endfacet
  facet normal 1.22465e-16 1 2.54072e-33
    outer loop
      vertex -22.5 1.5 -50.5
      vertex -17.5 1.5 -50.5
      vertex -22.5 1.5 -56.5
    endloop
  endfacet
  facet normal 1.22465e-16 1 2.54072e-33
    outer loop
      vertex -22.5 1.5 -56.5
      vertex -17.5 1.5 -50.5
      vertex -17.5 1.5 -56.5
    endloop
  endfacet
  facet normal -2.22045e-16 2.71926e-32 1
    outer loop
      vertex -22.5 1.5 -50.5
      vertex -22.5 -0.5 -50.5
      vertex -17.5 -0.5 -50.5
    endloop
  endfacet
  facet normal -2.22045e-16 2.71926e-32 1
    outer loop
      vertex -17.5 1.5 -50.5
      vertex -22.5 1.5 -50.5
      vertex -17.5 -0.5 -50.5
    endloop
  endfacet
  facet normal -1.22465e-16 -1 -2.54072e-33
    outer loop
      vertex -17.5 -0.5 -50.5
      vertex -22.5 -0.5 -50.5
      vertex -22.5 -0.5 -52.5
    endloop
  endfacet
  facet normal -1.22465e-16 -1 -2.54072e-33
    outer loop
      vertex -17.5 -0.5 -52.5
      vertex -17.5 -0.5 -50.5
      vertex -22.5 -0.5 -52.5
    endloop
  endfacet
  facet normal -2.22045e-16 2.71926e-32 1
    outer loop
      vertex -22.5 -0.5 -52.5
      vertex -22.5 -7 -52.5
      vertex -17.5 -7 -52.5
    endloop
  endfacet
  facet normal -2.22045e-16 2.71926e-32 1
    outer loop
      vertex -17.5 -0.5 -52.5
      vertex -22.5 -0.5 -52.5
      vertex -17.5 -7 -52.5
    endloop
  endfacet
  facet normal -2.22045e-16 2.71926e-32 1
    outer loop
      vertex -17.5 -15.1919 -52.5
      vertex -17.5 -0.5 -52.5
      vertex -17.5 -7 -52.5
    endloop
  endfacet
  facet normal 0 1 0
    outer loop
      vertex -22.5 -7 -53.5
      vertex -22.5 -7 -24.6
      vertex -22.5 -7 -52.5
    endloop
  endfacet
  facet normal 0 1 0
    outer loop
      vertex -22.5 -7 -52.5
      vertex -22.5 -7 -24.6
      vertex -17.5 -7 -24.6
    endloop
  endfacet
  facet normal 0 1 0
    outer loop
      vertex -22.5 -7 -52.5
      vertex -17.5 -7 -24.6
      vertex -17.5 -7 -52.5
    endloop
  endfacet
  facet normal 0 0 1
    outer loop
      vertex -17.5 -11 -24.6
      vertex -17.5 -7 -24.6
      vertex -22.5 -7 -24.6
    endloop
  endfacet
  facet normal 0 0 1
    outer loop
      vertex -22.5 -11 -24.6
      vertex -17.5 -11 -24.6
      vertex -22.5 -7 -24.6
    endloop
  endfacet
  facet normal 0 1 0
    outer loop
      vertex -17.5 -11 -17.8
      vertex -17.5 -11 -24.6
      vertex -22.5 -11 -17.8
    endloop
  endfacet
  facet normal 0 1 0
    outer loop
      vertex -22.5 -11 -17.8
      vertex -17.5 -11 -24.6
      vertex -22.5 -11 -24.6
    endloop
  endfacet
  facet normal 0 0 -1
    outer loop
      vertex -17.5 -7 -17.8
      vertex -17.5 -11 -17.8
      vertex -22.5 -7 -17.8
    endloop
  endfacet
  facet normal 0 0 -1
    outer loop
      vertex -22.5 -7 -17.8
      vertex -17.5 -11 -17.8
      vertex -22.5 -11 -17.8
    endloop
  endfacet
  facet normal 0 1 0
    outer loop
      vertex -3.5 -7 5
      vertex -3.5 -7 -5
      vertex -22.5 -7 5
    endloop
  endfacet
  facet normal 0 1 0
    outer loop
      vertex -22.5 -7 5
      vertex -3.5 -7 -5
      vertex -17.5 -7 -5
    endloop
  endfacet
  facet normal 0 1 0
    outer loop
      vertex -22.5 -7 5
      vertex -17.5 -7 -5
      vertex -17.5 -7 -17.8
    endloop
  endfacet
  facet normal 0 1 0
    outer loop
      vertex -22.5 -7 5
      vertex -17.5 -7 -17.8
      vertex -22.5 -7 -17.8
    endloop
  endfacet
  facet normal 0 0 1
    outer loop
      vertex -22.5 -7 5
      vertex -22.5 -17 5
      vertex 22.5 -17 5
    endloop
  endfacet
  facet normal 0 0 1
    outer loop
      vertex -3.5 -7 5
      vertex -22.5 -7 5
      vertex 22.5 -17 5
    endloop
  endfacet
  facet normal 0 0 1
    outer loop
      vertex 3.5 -7 5
      vertex -3.5 -7 5
      vertex 22.5 -17 5
    endloop
  endfacet
  facet normal 0 0 1
    outer loop
      vertex 22.5 -7 5
      vertex 3.5 -7 5
      vertex 22.5 -17 5
    endloop
  endfacet
  facet normal 0 0 1
    outer loop
      vertex 3.5 0 5
      vertex -3.5 -7 5
      vertex 3.5 -7 5
    endloop
  endfacet
  facet normal 0 0 1
    outer loop
      vertex -3.5 0 5
      vertex -3.5 -7 5
      vertex 3.5 0 5
    endloop
  endfacet
  facet normal 1 0 0
    outer loop
      vertex 22.5 -17 5
      vertex 22.5 -17 -53.4972
      vertex 22.5 -15.1919 -52.5
    endloop
  endfacet
  facet normal 1 0 0
    outer loop
      vertex 22.5 -7 -52.5
      vertex 22.5 -17 5
      vertex 22.5 -15.1919 -52.5
    endloop
  endfacet
  facet normal 1 0 0
    outer loop
      vertex 22.5 -7 -52.5
      vertex 22.5 -11 -24.6
      vertex 22.5 -17 5
    endloop
  endfacet
  facet normal 1 0 0
    outer loop
      vertex 22.5 -7 -52.5
      vertex 22.5 -7 -24.6
      vertex 22.5 -11 -24.6
    endloop
  endfacet
  facet normal 1 0 0
    outer loop
      vertex 22.5 -11 -24.6
      vertex 22.5 -11 -17.8
      vertex 22.5 -17 5
    endloop
  endfacet
  facet normal 1 0 0
    outer loop
      vertex 22.5 -7 -17.8
      vertex 22.5 -7 5
      vertex 22.5 -17 5
    endloop
  endfacet
  facet normal 1 0 0
    outer loop
      vertex 22.5 -11 -17.8
      vertex 22.5 -7 -17.8
      vertex 22.5 -17 5
    endloop
  endfacet
  facet normal 1 -1.22465e-16 2.22045e-16
    outer loop
      vertex 22.5 -17 -53.4972
      vertex 22.5 -17 -52.5
      vertex 22.5 -17 -54.5
    endloop
  endfacet
  facet normal 1 -1.22465e-16 2.22045e-16
    outer loop
      vertex 22.5 -15.1919 -52.5
      vertex 22.5 -17 -53.4972
      vertex 22.5 -9.5 -56.5
    endloop
  endfacet
  facet normal 1 -1.22465e-16 2.22045e-16
    outer loop
      vertex 22.5 -0.5 -52.5
      vertex 22.5 -15.1919 -52.5
      vertex 22.5 1.5 -56.5
    endloop
  endfacet
  facet normal 1 -1.22465e-16 2.22045e-16
    outer loop
      vertex 22.5 1.5 -50.5
      vertex 22.5 -0.5 -52.5
      vertex 22.5 1.5 -56.5
    endloop
  endfacet
  facet normal 1 -1.22465e-16 2.22045e-16
    outer loop
      vertex 22.5 -15.1919 -52.5
      vertex 22.5 -9.5 -56.5
      vertex 22.5 1.5 -56.5
    endloop
  endfacet
  facet normal 1 -1.22465e-16 2.22045e-16
    outer loop
      vertex 22.5 -9.5 -56.5
      vertex 22.5 -17 -53.4972
      vertex 22.5 -17 -54.5
    endloop
  endfacet
  facet normal 1 -1.22465e-16 2.22045e-16
    outer loop
      vertex 22.5 -0.5 -50.5
      vertex 22.5 -0.5 -52.5
      vertex 22.5 1.5 -50.5
    endloop
  endfacet
  facet normal -1 0 0
    outer loop
      vertex 17.5 -17 -53.5
      vertex 17.5 -17 -53.4972
      vertex 17.5 -7 -53.5
    endloop
  endfacet
  facet normal -1 0 0
    outer loop
      vertex 17.5 -7 -53.5
      vertex 17.5 -17 -53.4972
      vertex 17.5 -15.1919 -52.5
    endloop
  endfacet
  facet normal -1 0 0
    outer loop
      vertex 17.5 -15.1919 -52.5
      vertex 17.5 -17 -52.5
      vertex 17.5 -17 -5
    endloop
  endfacet
  facet normal -1 0 0
    outer loop
      vertex 17.5 -15.1919 -52.5
      vertex 17.5 -17 -5
      vertex 17.5 -7 -53.5
    endloop
  endfacet
  facet normal -1 0 0
    outer loop
      vertex 17.5 -7 -17.8
      vertex 17.5 -17 -5
      vertex 17.5 -7 -5
    endloop
  endfacet
  facet normal -1 0 0
    outer loop
      vertex 17.5 -11 -17.8
      vertex 17.5 -17 -5
      vertex 17.5 -7 -17.8
    endloop
  endfacet
  facet normal -1 0 0
    outer loop
      vertex 17.5 -11 -24.6
      vertex 17.5 -17 -5
      vertex 17.5 -11 -17.8
    endloop
  endfacet
  facet normal -1 0 0
    outer loop
      vertex 17.5 -7 -53.5
      vertex 17.5 -17 -5
      vertex 17.5 -11 -24.6
    endloop
  endfacet
  facet normal -1 0 0
    outer loop
      vertex 17.5 -7 -24.6
      vertex 17.5 -7 -53.5
      vertex 17.5 -11 -24.6
    endloop
  endfacet
  facet normal 0 0 -1
    outer loop
      vertex -17.5 -17 -5
      vertex -17.5 -7 -5
      vertex 17.5 -17 -5
    endloop
  endfacet
  facet normal 0 0 -1
    outer loop
      vertex 17.5 -17 -5
      vertex -17.5 -7 -5
      vertex -3.5 -7 -5
    endloop
  endfacet
  facet normal 0 0 -1
    outer loop
      vertex 3.5 -7 -5
      vertex -3.5 -7 -5
      vertex -3.5 0 -5
    endloop
  endfacet
  facet normal 0 0 -1
    outer loop
      vertex 17.5 -17 -5
      vertex -3.5 -7 -5
      vertex 3.5 -7 -5
    endloop
  endfacet
  facet normal 0 0 -1
    outer loop
      vertex 17.5 -7 -5
      vertex 17.5 -17 -5
      vertex 3.5 -7 -5
    endloop
  endfacet
  facet normal 0 0 -1
    outer loop
      vertex 3.5 -7 -5
      vertex -3.5 0 -5
      vertex 3.5 0 -5
    endloop
  endfacet
  facet normal 1 0 0
    outer loop
      vertex -17.5 -17 -5
      vertex -17.5 -17 -53.4972
      vertex -17.5 -15.1919 -52.5
    endloop
  endfacet
  facet normal 1 0 0
    outer loop
      vertex -17.5 -7 -52.5
      vertex -17.5 -17 -5
      vertex -17.5 -15.1919 -52.5
    endloop
  endfacet
  facet normal 1 0 0
    outer loop
      vertex -17.5 -7 -52.5
      vertex -17.5 -11 -24.6
      vertex -17.5 -17 -5
    endloop
  endfacet
  facet normal 1 0 0
    outer loop
      vertex -17.5 -7 -52.5
      vertex -17.5 -7 -24.6
      vertex -17.5 -11 -24.6
    endloop
  endfacet
  facet normal 1 0 0
    outer loop
      vertex -17.5 -11 -24.6
      vertex -17.5 -11 -17.8
      vertex -17.5 -17 -5
    endloop
  endfacet
  facet normal 1 0 0
    outer loop
      vertex -17.5 -7 -17.8
      vertex -17.5 -7 -5
      vertex -17.5 -17 -5
    endloop
  endfacet
  facet normal 1 0 0
    outer loop
      vertex -17.5 -11 -17.8
      vertex -17.5 -7 -17.8
      vertex -17.5 -17 -5
    endloop
  endfacet
  facet normal 0 2.22045e-16 1
    outer loop
      vertex 2.15 -17 -3.72391
      vertex 2.15 -14.1 -3.72391
      vertex -2.15 -14.1 -3.72391
    endloop
  endfacet
  facet normal 0 2.22045e-16 1
    outer loop
      vertex -2.15 -17 -3.72391
      vertex 2.15 -17 -3.72391
      vertex -2.15 -14.1 -3.72391
    endloop
  endfacet
  facet normal 0.866025 1.11022e-16 0.5
    outer loop
      vertex -2.15 -17 -3.72391
      vertex -2.15 -14.1 -3.72391
      vertex -4.3 -14.1 -3.33067e-16
    endloop
  endfacet
  facet normal 0.866025 1.11022e-16 0.5
    outer loop
      vertex -4.3 -17 3.10862e-16
      vertex -2.15 -17 -3.72391
      vertex -4.3 -14.1 -3.33067e-16
    endloop
  endfacet
  facet normal -0.866025 1.11022e-16 0.5
    outer loop
      vertex 4.3 -14.1 -3.33067e-16
      vertex 2.15 -14.1 -3.72391
      vertex 4.3 -17 3.10862e-16
    endloop
  endfacet
  facet normal -0.866025 1.11022e-16 0.5
    outer loop
      vertex 4.3 -17 3.10862e-16
      vertex 2.15 -14.1 -3.72391
      vertex 2.15 -17 -3.72391
    endloop
  endfacet
  facet normal -0.866025 -1.11022e-16 -0.5
    outer loop
      vertex 4.3 -14.1 -3.33067e-16
      vertex 4.3 -17 3.10862e-16
      vertex 2.15 -14.1 3.72391
    endloop
  endfacet
  facet normal -0.866025 -1.11022e-16 -0.5
    outer loop
      vertex 2.15 -14.1 3.72391
      vertex 4.3 -17 3.10862e-16
      vertex 2.15 -17 3.72391
    endloop
  endfacet
  facet normal 0 -2.22045e-16 -1
    outer loop
      vertex 2.15 -14.1 3.72391
      vertex 2.15 -17 3.72391
      vertex -2.15 -14.1 3.72391
    endloop
  endfacet
  facet normal 0 -2.22045e-16 -1
    outer loop
      vertex -2.15 -14.1 3.72391
      vertex 2.15 -17 3.72391
      vertex -2.15 -17 3.72391
    endloop
  endfacet
  facet normal 0.866025 -1.11022e-16 -0.5
    outer loop
      vertex -4.3 -14.1 -3.33067e-16
      vertex -2.15 -14.1 3.72391
      vertex -2.15 -17 3.72391
    endloop
  endfacet
  facet normal 0.866025 -1.11022e-16 -0.5
    outer loop
      vertex -4.3 -17 3.10862e-16
      vertex -4.3 -14.1 -3.33067e-16
      vertex -2.15 -17 3.72391
    endloop
  endfacet
  facet normal -1 0 0
    outer loop
      vertex -3.5 -7 -5
      vertex -3.5 -7 5
      vertex -3.5 0 -5
    endloop
  endfacet
  facet normal -1 0 0
    outer loop
      vertex -3.5 0 -5
      vertex -3.5 -7 5
      vertex -3.5 0 5
    endloop
  endfacet
  facet normal 0 1 0
    outer loop
      vertex 1.20496 0 1.65849
      vertex -3.5 0 5
      vertex 3.5 0 5
    endloop
  endfacet
  facet normal 0 1 0
    outer loop
      vertex -3.5 0 -5
      vertex -3.5 0 5
      vertex -2.05 0 1.66533e-14
    endloop
  endfacet
  facet normal 0 1 0
    outer loop
      vertex -1.37172 0 1.52345
      vertex -3.5 0 5
      vertex -1.20496 0 1.65849
    endloop
  endfacet
  facet normal 0 1 0
    outer loop
      vertex -3.5 0 -5
      vertex -2.05 0 1.66533e-14
      vertex -2.03877 0 -0.214283
    endloop
  endfacet
  facet normal 0 1 0
    outer loop
      vertex -3.5 0 -5
      vertex -2.03877 0 -0.214283
      vertex -2.0052 0 -0.426219
    endloop
  endfacet
  facet normal 0 1 0
    outer loop
      vertex -3.5 0 -5
      vertex -2.0052 0 -0.426219
      vertex -1.94967 0 -0.633485
    endloop
  endfacet
  facet normal 0 1 0
    outer loop
      vertex -3.5 0 -5
      vertex -1.94967 0 -0.633485
      vertex -1.87277 0 -0.83381
    endloop
  endfacet
  facet normal 0 1 0
    outer loop
      vertex -3.5 0 -5
      vertex -1.87277 0 -0.83381
      vertex -1.77535 0 -1.025
    endloop
  endfacet
  facet normal 0 1 0
    outer loop
      vertex -3.5 0 -5
      vertex -1.77535 0 -1.025
      vertex -1.65848 0 -1.20496
    endloop
  endfacet
  facet normal 0 1 0
    outer loop
      vertex -3.5 0 -5
      vertex -1.65848 0 -1.20496
      vertex -1.52345 0 -1.37172
    endloop
  endfacet
  facet normal 0 1 0
    outer loop
      vertex -3.5 0 -5
      vertex -1.52345 0 -1.37172
      vertex -1.37172 0 -1.52345
    endloop
  endfacet
  facet normal 0 1 0
    outer loop
      vertex -3.5 0 -5
      vertex -1.37172 0 -1.52345
      vertex -1.20496 0 -1.65848
    endloop
  endfacet
  facet normal 0 1 0
    outer loop
      vertex -3.5 0 -5
      vertex -1.20496 0 -1.65848
      vertex 3.5 0 -5
    endloop
  endfacet
  facet normal 0 1 0
    outer loop
      vertex -1.20496 0 -1.65848
      vertex -1.025 0 -1.77535
      vertex 3.5 0 -5
    endloop
  endfacet
  facet normal 0 1 0
    outer loop
      vertex -0.633485 0 -1.94967
      vertex 3.5 0 -5
      vertex -0.83381 0 -1.87277
    endloop
  endfacet
  facet normal 0 1 0
    outer loop
      vertex -0.426219 0 -2.0052
      vertex 3.5 0 -5
      vertex -0.633485 0 -1.94967
    endloop
  endfacet
  facet normal 0 1 0
    outer loop
      vertex -0.214283 0 -2.03877
      vertex 3.5 0 -5
      vertex -0.426219 0 -2.0052
    endloop
  endfacet
  facet normal 0 1 0
    outer loop
      vertex 0 0 -2.05
      vertex 3.5 0 -5
      vertex -0.214283 0 -2.03877
    endloop
  endfacet
  facet normal 0 1 0
    outer loop
      vertex 0.214283 0 -2.03877
      vertex 3.5 0 -5
      vertex 0 0 -2.05
    endloop
  endfacet
  facet normal 0 1 0
    outer loop
      vertex 1.20496 0 -1.65848
      vertex 3.5 0 -5
      vertex 1.025 0 -1.77535
    endloop
  endfacet
  facet normal 0 1 0
    outer loop
      vertex -1.65848 0 1.20496
      vertex -3.5 0 5
      vertex -1.52345 0 1.37172
    endloop
  endfacet
  facet normal 0 1 0
    outer loop
      vertex 0.214283 0 -2.03877
      vertex 0.426219 0 -2.0052
      vertex 3.5 0 -5
    endloop
  endfacet
  facet normal 0 1 0
    outer loop
      vertex 0.426219 0 -2.0052
      vertex 0.633485 0 -1.94967
      vertex 3.5 0 -5
    endloop
  endfacet
  facet normal 0 1 0
    outer loop
      vertex -1.52345 0 1.37172
      vertex -3.5 0 5
      vertex -1.37172 0 1.52345
    endloop
  endfacet
  facet normal 0 1 0
    outer loop
      vertex 0.633485 0 -1.94967
      vertex 0.83381 0 -1.87277
      vertex 3.5 0 -5
    endloop
  endfacet
  facet normal 0 1 0
    outer loop
      vertex 0.83381 0 -1.87277
      vertex 1.025 0 -1.77535
      vertex 3.5 0 -5
    endloop
  endfacet
  facet normal 0 1 0
    outer loop
      vertex 2.03877 0 -0.214283
      vertex 3.5 0 5
      vertex 2.0052 0 -0.426219
    endloop
  endfacet
  facet normal 0 1 0
    outer loop
      vertex 3.5 0 -5
      vertex 1.20496 0 -1.65848
      vertex 1.37172 0 -1.52345
    endloop
  endfacet
  facet normal 0 1 0
    outer loop
      vertex 3.5 0 -5
      vertex 1.37172 0 -1.52345
      vertex 1.52345 0 -1.37172
    endloop
  endfacet
  facet normal 0 1 0
    outer loop
      vertex 3.5 0 -5
      vertex 1.52345 0 -1.37172
      vertex 1.65848 0 -1.20496
    endloop
  endfacet
  facet normal 0 1 0
    outer loop
      vertex 3.5 0 -5
      vertex 1.65848 0 -1.20496
      vertex 1.77535 0 -1.025
    endloop
  endfacet
  facet normal 0 1 0
    outer loop
      vertex 3.5 0 -5
      vertex 1.77535 0 -1.025
      vertex 1.87277 0 -0.83381
    endloop
  endfacet
  facet normal 0 1 0
    outer loop
      vertex 3.5 0 -5
      vertex 1.87277 0 -0.83381
      vertex 1.94967 0 -0.633485
    endloop
  endfacet
  facet normal 0 1 0
    outer loop
      vertex 3.5 0 -5
      vertex 1.94967 0 -0.633485
      vertex 3.5 0 5
    endloop
  endfacet
  facet normal 0 1 0
    outer loop
      vertex 1.94967 0 -0.633485
      vertex 2.0052 0 -0.426219
      vertex 3.5 0 5
    endloop
  endfacet
  facet normal 0 1 0
    outer loop
      vertex 2.05 0 1.66533e-14
      vertex 3.5 0 5
      vertex 2.03877 0 -0.214283
    endloop
  endfacet
  facet normal 0 1 0
    outer loop
      vertex 2.03877 0 0.214283
      vertex 3.5 0 5
      vertex 2.05 0 1.66533e-14
    endloop
  endfacet
  facet normal 0 1 0
    outer loop
      vertex 2.0052 0 0.426219
      vertex 3.5 0 5
      vertex 2.03877 0 0.214283
    endloop
  endfacet
  facet normal 0 1 0
    outer loop
      vertex 1.94967 0 0.633485
      vertex 3.5 0 5
      vertex 2.0052 0 0.426219
    endloop
  endfacet
  facet normal 0 1 0
    outer loop
      vertex -1.20496 0 1.65849
      vertex -3.5 0 5
      vertex -1.025 0 1.77535
    endloop
  endfacet
  facet normal 0 1 0
    outer loop
      vertex 0.83381 0 1.87277
      vertex -3.5 0 5
      vertex 1.025 0 1.77535
    endloop
  endfacet
  facet normal 0 1 0
    outer loop
      vertex 0 0 2.05
      vertex -3.5 0 5
      vertex 0.214283 0 2.03877
    endloop
  endfacet
  facet normal 0 1 0
    outer loop
      vertex 1.94967 0 0.633485
      vertex 1.87277 0 0.83381
      vertex 3.5 0 5
    endloop
  endfacet
  facet normal 0 1 0
    outer loop
      vertex 0.214283 0 2.03877
      vertex -3.5 0 5
      vertex 0.426219 0 2.0052
    endloop
  endfacet
  facet normal 0 1 0
    outer loop
      vertex 1.87277 0 0.83381
      vertex 1.77535 0 1.025
      vertex 3.5 0 5
    endloop
  endfacet
  facet normal 0 1 0
    outer loop
      vertex 0.426219 0 2.0052
      vertex -3.5 0 5
      vertex 0.633485 0 1.94967
    endloop
  endfacet
  facet normal 0 1 0
    outer loop
      vertex 1.77535 0 1.025
      vertex 1.65848 0 1.20496
      vertex 3.5 0 5
    endloop
  endfacet
  facet normal 0 1 0
    outer loop
      vertex 1.65848 0 1.20496
      vertex 1.52345 0 1.37172
      vertex 3.5 0 5
    endloop
  endfacet
  facet normal 0 1 0
    outer loop
      vertex 0.633485 0 1.94967
      vertex -3.5 0 5
      vertex 0.83381 0 1.87277
    endloop
  endfacet
  facet normal 0 1 0
    outer loop
      vertex 1.52345 0 1.37172
      vertex 1.37172 0 1.52345
      vertex 3.5 0 5
    endloop
  endfacet
  facet normal 0 1 0
    outer loop
      vertex 1.025 0 1.77535
      vertex -3.5 0 5
      vertex 1.20496 0 1.65849
    endloop
  endfacet
  facet normal 0 1 0
    outer loop
      vertex 1.37172 0 1.52345
      vertex 1.20496 0 1.65849
      vertex 3.5 0 5
    endloop
  endfacet
  facet normal 0 1 0
    outer loop
      vertex -0.214283 0 2.03877
      vertex -3.5 0 5
      vertex 0 0 2.05
    endloop
  endfacet
  facet normal 0 1 0
    outer loop
      vertex -0.426219 0 2.0052
      vertex -3.5 0 5
      vertex -0.214283 0 2.03877
    endloop
  endfacet
  facet normal 0 1 0
    outer loop
      vertex -0.633485 0 1.94967
      vertex -3.5 0 5
      vertex -0.426219 0 2.0052
    endloop
  endfacet
  facet normal 0 1 0
    outer loop
      vertex -0.83381 0 1.87277
      vertex -3.5 0 5
      vertex -0.633485 0 1.94967
    endloop
  endfacet
  facet normal 0 1 0
    outer loop
      vertex -1.025 0 1.77535
      vertex -3.5 0 5
      vertex -0.83381 0 1.87277
    endloop
  endfacet
  facet normal 0 1 0
    outer loop
      vertex -1.77535 0 1.025
      vertex -3.5 0 5
      vertex -1.65848 0 1.20496
    endloop
  endfacet
  facet normal 0 1 0
    outer loop
      vertex -1.87277 0 0.83381
      vertex -3.5 0 5
      vertex -1.77535 0 1.025
    endloop
  endfacet
  facet normal 0 1 0
    outer loop
      vertex -1.94967 0 0.633485
      vertex -3.5 0 5
      vertex -1.87277 0 0.83381
    endloop
  endfacet
  facet normal 0 1 0
    outer loop
      vertex -2.0052 0 0.426219
      vertex -3.5 0 5
      vertex -1.94967 0 0.633485
    endloop
  endfacet
  facet normal 0 1 0
    outer loop
      vertex -2.03877 0 0.214283
      vertex -3.5 0 5
      vertex -2.0052 0 0.426219
    endloop
  endfacet
  facet normal 0 1 0
    outer loop
      vertex -2.05 0 1.66533e-14
      vertex -3.5 0 5
      vertex -2.03877 0 0.214283
    endloop
  endfacet
  facet normal 0 1 0
    outer loop
      vertex -0.83381 0 -1.87277
      vertex 3.5 0 -5
      vertex -1.025 0 -1.77535
    endloop
  endfacet
  facet normal 1 0 0
    outer loop
      vertex 3.5 -7 5
      vertex 3.5 -7 -5
      vertex 3.5 0 -5
    endloop
  endfacet
  facet normal 1 0 0
    outer loop
      vertex 3.5 0 5
      vertex 3.5 -7 5
      vertex 3.5 0 -5
    endloop
  endfacet
  facet normal 0 1 0
    outer loop
      vertex 3.5 -7 -5
      vertex 3.5 -7 5
      vertex 17.5 -7 -5
    endloop
  endfacet
  facet normal 0 1 0
    outer loop
      vertex 22.5 -7 5
      vertex 22.5 -7 -17.8
      vertex 17.5 -7 -5
    endloop
  endfacet
  facet normal 0 1 0
    outer loop
      vertex 22.5 -7 5
      vertex 17.5 -7 -5
      vertex 3.5 -7 5
    endloop
  endfacet
  facet normal 0 1 0
    outer loop
      vertex 17.5 -7 -5
      vertex 22.5 -7 -17.8
      vertex 17.5 -7 -17.8
    endloop
  endfacet
  facet normal 0 0 -1
    outer loop
      vertex 22.5 -7 -17.8
      vertex 22.5 -11 -17.8
      vertex 17.5 -7 -17.8
    endloop
  endfacet
  facet normal 0 0 -1
    outer loop
      vertex 17.5 -7 -17.8
      vertex 22.5 -11 -17.8
      vertex 17.5 -11 -17.8
    endloop
  endfacet
  facet normal 0 1 0
    outer loop
      vertex 22.5 -11 -17.8
      vertex 22.5 -11 -24.6
      vertex 17.5 -11 -17.8
    endloop
  endfacet
  facet normal 0 1 0
    outer loop
      vertex 17.5 -11 -17.8
      vertex 22.5 -11 -24.6
      vertex 17.5 -11 -24.6
    endloop
  endfacet
  facet normal 0 0 1
    outer loop
      vertex 22.5 -11 -24.6
      vertex 22.5 -7 -24.6
      vertex 17.5 -7 -24.6
    endloop
  endfacet
  facet normal 0 0 1
    outer loop
      vertex 17.5 -11 -24.6
      vertex 22.5 -11 -24.6
      vertex 17.5 -7 -24.6
    endloop
  endfacet
  facet normal 0 1 0
    outer loop
      vertex 17.5 -7 -53.5
      vertex 17.5 -7 -24.6
      vertex 17.5 -7 -52.5
    endloop
  endfacet
  facet normal 0 1 0
    outer loop
      vertex 17.5 -7 -52.5
      vertex 17.5 -7 -24.6
      vertex 22.5 -7 -24.6
    endloop
  endfacet
  facet normal 0 1 0
    outer loop
      vertex 17.5 -7 -52.5
      vertex 22.5 -7 -24.6
      vertex 22.5 -7 -52.5
    endloop
  endfacet
  facet normal -2.22045e-16 2.71926e-32 1
    outer loop
      vertex 17.5 -0.5 -52.5
      vertex 17.5 -7 -52.5
      vertex 22.5 -7 -52.5
    endloop
  endfacet
  facet normal -2.22045e-16 2.71926e-32 1
    outer loop
      vertex 22.5 -0.5 -52.5
      vertex 17.5 -0.5 -52.5
      vertex 22.5 -7 -52.5
    endloop
  endfacet
  facet normal -2.22045e-16 2.71926e-32 1
    outer loop
      vertex 22.5 -15.1919 -52.5
      vertex 22.5 -0.5 -52.5
      vertex 22.5 -7 -52.5
    endloop
  endfacet
  facet normal -1.22465e-16 -1 -2.54072e-33
    outer loop
      vertex 22.5 -0.5 -50.5
      vertex 17.5 -0.5 -50.5
      vertex 17.5 -0.5 -52.5
    endloop
  endfacet
  facet normal -1.22465e-16 -1 -2.54072e-33
    outer loop
      vertex 22.5 -0.5 -52.5
      vertex 22.5 -0.5 -50.5
      vertex 17.5 -0.5 -52.5
    endloop
  endfacet
  facet normal -2.22045e-16 2.71926e-32 1
    outer loop
      vertex 17.5 1.5 -50.5
      vertex 17.5 -0.5 -50.5
      vertex 22.5 -0.5 -50.5
    endloop
  endfacet
  facet normal -2.22045e-16 2.71926e-32 1
    outer loop
      vertex 22.5 1.5 -50.5
      vertex 17.5 1.5 -50.5
      vertex 22.5 -0.5 -50.5
    endloop
  endfacet
  facet normal 1.22465e-16 1 2.54072e-33
    outer loop
      vertex 17.5 1.5 -50.5
      vertex 22.5 1.5 -50.5
      vertex 17.5 1.5 -56.5
    endloop
  endfacet
  facet normal 1.22465e-16 1 2.54072e-33
    outer loop
      vertex 17.5 1.5 -56.5
      vertex 22.5 1.5 -50.5
      vertex 22.5 1.5 -56.5
    endloop
  endfacet
  facet normal 2.22045e-16 -2.71926e-32 -1
    outer loop
      vertex 17.5 -9.5 -56.5
      vertex 17.5 1.5 -56.5
      vertex 22.5 -9.5 -56.5
    endloop
  endfacet
  facet normal 2.22045e-16 -2.71926e-32 -1
    outer loop
      vertex 22.5 -9.5 -56.5
      vertex 17.5 1.5 -56.5
      vertex 22.5 1.5 -56.5
    endloop
  endfacet
  facet normal 1.82993e-16 -0.257663 -0.966235
    outer loop
      vertex 17.5 -17 -54.5
      vertex 17.5 -9.5 -56.5
      vertex 22.5 -17 -54.5
    endloop
  endfacet
  facet normal 1.82993e-16 -0.257663 -0.966235
    outer loop
      vertex 22.5 -17 -54.5
      vertex 17.5 -9.5 -56.5
      vertex 22.5 -9.5 -56.5
    endloop
  endfacet
  facet normal -1.22465e-16 -1 -2.54072e-33
    outer loop
      vertex 22.5 -17 -52.5
      vertex 17.5 -17 -52.5
      vertex 17.5 -17 -54.5
    endloop
  endfacet
  facet normal -1.22465e-16 -1 -2.54072e-33
    outer loop
      vertex 22.5 -17 -54.5
      vertex 22.5 -17 -52.5
      vertex 17.5 -17 -54.5
    endloop
  endfacet
  facet normal -1 1.22465e-16 -2.22045e-16
    outer loop
      vertex 17.5 -17 -52.5
      vertex 17.5 -17 -53.4972
      vertex 17.5 -17 -54.5
    endloop
  endfacet
  facet normal -1 1.22465e-16 -2.22045e-16
    outer loop
      vertex 17.5 -17 -52.5
      vertex 17.5 -15.1919 -52.5
      vertex 17.5 -17 -53.4972
    endloop
  endfacet
  facet normal -1 1.22465e-16 -2.22045e-16
    outer loop
      vertex 17.5 -17 -53.4972
      vertex 17.5 -17 -53.5
      vertex 17.5 -17 -54.5
    endloop
  endfacet
  facet normal -1 1.22465e-16 -2.22045e-16
    outer loop
      vertex 17.5 -7 -53.5
      vertex 17.5 -7 -52.5
      vertex 17.5 -0.5 -52.5
    endloop
  endfacet
  facet normal -1 1.22465e-16 -2.22045e-16
    outer loop
      vertex 17.5 -7 -53.5
      vertex 17.5 1.5 -56.5
      vertex 17.5 -17 -54.5
    endloop
  endfacet
  facet normal -1 1.22465e-16 -2.22045e-16
    outer loop
      vertex 17.5 -0.5 -52.5
      vertex 17.5 -0.5 -50.5
      vertex 17.5 1.5 -50.5
    endloop
  endfacet
  facet normal -1 1.22465e-16 -2.22045e-16
    outer loop
      vertex 17.5 -0.5 -52.5
      vertex 17.5 1.5 -50.5
      vertex 17.5 1.5 -56.5
    endloop
  endfacet
  facet normal -1 1.22465e-16 -2.22045e-16
    outer loop
      vertex 17.5 -0.5 -52.5
      vertex 17.5 1.5 -56.5
      vertex 17.5 -7 -53.5
    endloop
  endfacet
  facet normal -1 1.22465e-16 -2.22045e-16
    outer loop
      vertex 17.5 -17 -54.5
      vertex 17.5 1.5 -56.5
      vertex 17.5 -9.5 -56.5
    endloop
  endfacet
  facet normal -1 1.22465e-16 -2.22045e-16
    outer loop
      vertex 17.5 -7 -53.5
      vertex 17.5 -17 -54.5
      vertex 17.5 -17 -53.5
    endloop
  endfacet
  facet normal 0 -1 2.22045e-16
    outer loop
      vertex -2.15 -14.1 -3.72391
      vertex 2.15 -14.1 -3.72391
      vertex 4.3 -14.1 -3.33067e-16
    endloop
  endfacet
  facet normal 0 -1 2.22045e-16
    outer loop
      vertex 0.633485 -14.1 -1.94967
      vertex 0.426219 -14.1 -2.0052
      vertex -2.15 -14.1 -3.72391
    endloop
  endfacet
  facet normal 0 -1 2.22045e-16
    outer loop
      vertex 1.025 -14.1 -1.77535
      vertex -2.15 -14.1 -3.72391
      vertex 4.3 -14.1 -3.33067e-16
    endloop
  endfacet
  facet normal 0 -1 2.22045e-16
    outer loop
      vertex -4.3 -14.1 -3.33067e-16
      vertex -2.15 -14.1 -3.72391
      vertex -2.15 -14.1 3.72391
    endloop
  endfacet
  facet normal 0 -1 2.22045e-16
    outer loop
      vertex -2.15 -14.1 3.72391
      vertex -2.15 -14.1 -3.72391
      vertex -2.05 -14.1 1.97842e-14
    endloop
  endfacet
  facet normal 0 -1 2.22045e-16
    outer loop
      vertex 0.214283 -14.1 2.03877
      vertex 0.426219 -14.1 2.0052
      vertex 2.15 -14.1 3.72391
    endloop
  endfacet
  facet normal 0 -1 2.22045e-16
    outer loop
      vertex -2.15 -14.1 3.72391
      vertex -2.05 -14.1 1.97842e-14
      vertex -2.03877 -14.1 0.214283
    endloop
  endfacet
  facet normal 0 -1 2.22045e-16
    outer loop
      vertex 1.025 -14.1 1.77535
      vertex 1.20496 -14.1 1.65849
      vertex 2.15 -14.1 3.72391
    endloop
  endfacet
  facet normal 0 -1 2.22045e-16
    outer loop
      vertex -2.15 -14.1 3.72391
      vertex -2.03877 -14.1 0.214283
      vertex -2.0052 -14.1 0.426219
    endloop
  endfacet
  facet normal 0 -1 2.22045e-16
    outer loop
      vertex -2.15 -14.1 3.72391
      vertex -2.0052 -14.1 0.426219
      vertex -1.94967 -14.1 0.633485
    endloop
  endfacet
  facet normal 0 -1 2.22045e-16
    outer loop
      vertex 0 -14.1 2.05
      vertex 0.214283 -14.1 2.03877
      vertex 2.15 -14.1 3.72391
    endloop
  endfacet
  facet normal 0 -1 2.22045e-16
    outer loop
      vertex -2.15 -14.1 3.72391
      vertex -1.94967 -14.1 0.633485
      vertex -1.87277 -14.1 0.83381
    endloop
  endfacet
  facet normal 0 -1 2.22045e-16
    outer loop
      vertex -2.15 -14.1 3.72391
      vertex -1.87277 -14.1 0.83381
      vertex -1.77535 -14.1 1.025
    endloop
  endfacet
  facet normal 0 -1 2.22045e-16
    outer loop
      vertex -0.426219 -14.1 2.0052
      vertex -0.214283 -14.1 2.03877
      vertex 2.15 -14.1 3.72391
    endloop
  endfacet
  facet normal 0 -1 2.22045e-16
    outer loop
      vertex -2.15 -14.1 3.72391
      vertex -1.77535 -14.1 1.025
      vertex -1.65848 -14.1 1.20496
    endloop
  endfacet
  facet normal 0 -1 2.22045e-16
    outer loop
      vertex -0.214283 -14.1 2.03877
      vertex 0 -14.1 2.05
      vertex 2.15 -14.1 3.72391
    endloop
  endfacet
  facet normal 0 -1 2.22045e-16
    outer loop
      vertex -2.15 -14.1 3.72391
      vertex -1.65848 -14.1 1.20496
      vertex -1.52345 -14.1 1.37172
    endloop
  endfacet
  facet normal 0 -1 2.22045e-16
    outer loop
      vertex -2.15 -14.1 3.72391
      vertex -1.52345 -14.1 1.37172
      vertex -1.37172 -14.1 1.52345
    endloop
  endfacet
  facet normal 0 -1 2.22045e-16
    outer loop
      vertex -0.83381 -14.1 1.87277
      vertex -0.633485 -14.1 1.94967
      vertex 2.15 -14.1 3.72391
    endloop
  endfacet
  facet normal 0 -1 2.22045e-16
    outer loop
      vertex -2.15 -14.1 3.72391
      vertex -1.37172 -14.1 1.52345
      vertex -1.20496 -14.1 1.65849
    endloop
  endfacet
  facet normal 0 -1 2.22045e-16
    outer loop
      vertex -2.15 -14.1 3.72391
      vertex -1.025 -14.1 1.77535
      vertex 2.15 -14.1 3.72391
    endloop
  endfacet
  facet normal 0 -1 2.22045e-16
    outer loop
      vertex -2.15 -14.1 3.72391
      vertex -1.20496 -14.1 1.65849
      vertex -1.025 -14.1 1.77535
    endloop
  endfacet
  facet normal 0 -1 2.22045e-16
    outer loop
      vertex 0.426219 -14.1 2.0052
      vertex 0.633485 -14.1 1.94967
      vertex 2.15 -14.1 3.72391
    endloop
  endfacet
  facet normal 0 -1 2.22045e-16
    outer loop
      vertex 0.633485 -14.1 1.94967
      vertex 0.83381 -14.1 1.87277
      vertex 2.15 -14.1 3.72391
    endloop
  endfacet
  facet normal 0 -1 2.22045e-16
    outer loop
      vertex -1.20496 -14.1 -1.65848
      vertex -1.37172 -14.1 -1.52345
      vertex -2.15 -14.1 -3.72391
    endloop
  endfacet
  facet normal 0 -1 2.22045e-16
    outer loop
      vertex 0.83381 -14.1 1.87277
      vertex 1.025 -14.1 1.77535
      vertex 2.15 -14.1 3.72391
    endloop
  endfacet
  facet normal 0 -1 2.22045e-16
    outer loop
      vertex 2.15 -14.1 3.72391
      vertex 1.20496 -14.1 1.65849
      vertex 4.3 -14.1 -3.33067e-16
    endloop
  endfacet
  facet normal 0 -1 2.22045e-16
    outer loop
      vertex 1.20496 -14.1 1.65849
      vertex 1.37172 -14.1 1.52345
      vertex 4.3 -14.1 -3.33067e-16
    endloop
  endfacet
  facet normal 0 -1 2.22045e-16
    outer loop
      vertex 1.37172 -14.1 1.52345
      vertex 1.52345 -14.1 1.37172
      vertex 4.3 -14.1 -3.33067e-16
    endloop
  endfacet
  facet normal 0 -1 2.22045e-16
    outer loop
      vertex 1.52345 -14.1 1.37172
      vertex 1.65848 -14.1 1.20496
      vertex 4.3 -14.1 -3.33067e-16
    endloop
  endfacet
  facet normal 0 -1 2.22045e-16
    outer loop
      vertex 1.65848 -14.1 1.20496
      vertex 1.77535 -14.1 1.025
      vertex 4.3 -14.1 -3.33067e-16
    endloop
  endfacet
  facet normal 0 -1 2.22045e-16
    outer loop
      vertex -0.83381 -14.1 -1.87277
      vertex -1.025 -14.1 -1.77535
      vertex -2.15 -14.1 -3.72391
    endloop
  endfacet
  facet normal 0 -1 2.22045e-16
    outer loop
      vertex 1.77535 -14.1 1.025
      vertex 1.87277 -14.1 0.83381
      vertex 4.3 -14.1 -3.33067e-16
    endloop
  endfacet
  facet normal 0 -1 2.22045e-16
    outer loop
      vertex 1.87277 -14.1 0.83381
      vertex 1.94967 -14.1 0.633485
      vertex 4.3 -14.1 -3.33067e-16
    endloop
  endfacet
  facet normal 0 -1 2.22045e-16
    outer loop
      vertex 1.94967 -14.1 0.633485
      vertex 2.0052 -14.1 0.426219
      vertex 4.3 -14.1 -3.33067e-16
    endloop
  endfacet
  facet normal 0 -1 2.22045e-16
    outer loop
      vertex 2.0052 -14.1 0.426219
      vertex 2.03877 -14.1 0.214283
      vertex 4.3 -14.1 -3.33067e-16
    endloop
  endfacet
  facet normal 0 -1 2.22045e-16
    outer loop
      vertex 2.03877 -14.1 0.214283
      vertex 2.05 -14.1 1.97842e-14
      vertex 4.3 -14.1 -3.33067e-16
    endloop
  endfacet
  facet normal 0 -1 2.22045e-16
    outer loop
      vertex 2.05 -14.1 1.97842e-14
      vertex 2.03877 -14.1 -0.214283
      vertex 4.3 -14.1 -3.33067e-16
    endloop
  endfacet
  facet normal 0 -1 2.22045e-16
    outer loop
      vertex 2.03877 -14.1 -0.214283
      vertex 2.0052 -14.1 -0.426219
      vertex 4.3 -14.1 -3.33067e-16
    endloop
  endfacet
  facet normal 0 -1 2.22045e-16
    outer loop
      vertex 2.0052 -14.1 -0.426219
      vertex 1.94967 -14.1 -0.633485
      vertex 4.3 -14.1 -3.33067e-16
    endloop
  endfacet
  facet normal 0 -1 2.22045e-16
    outer loop
      vertex 1.94967 -14.1 -0.633485
      vertex 1.87277 -14.1 -0.83381
      vertex 4.3 -14.1 -3.33067e-16
    endloop
  endfacet
  facet normal 0 -1 2.22045e-16
    outer loop
      vertex 1.87277 -14.1 -0.83381
      vertex 1.77535 -14.1 -1.025
      vertex 4.3 -14.1 -3.33067e-16
    endloop
  endfacet
  facet normal 0 -1 2.22045e-16
    outer loop
      vertex 1.77535 -14.1 -1.025
      vertex 1.65848 -14.1 -1.20496
      vertex 4.3 -14.1 -3.33067e-16
    endloop
  endfacet
  facet normal 0 -1 2.22045e-16
    outer loop
      vertex 1.65848 -14.1 -1.20496
      vertex 1.52345 -14.1 -1.37172
      vertex 4.3 -14.1 -3.33067e-16
    endloop
  endfacet
  facet normal 0 -1 2.22045e-16
    outer loop
      vertex 0.426219 -14.1 -2.0052
      vertex 0.214283 -14.1 -2.03877
      vertex -2.15 -14.1 -3.72391
    endloop
  endfacet
  facet normal 0 -1 2.22045e-16
    outer loop
      vertex 1.52345 -14.1 -1.37172
      vertex 1.37172 -14.1 -1.52345
      vertex 4.3 -14.1 -3.33067e-16
    endloop
  endfacet
  facet normal 0 -1 2.22045e-16
    outer loop
      vertex 1.37172 -14.1 -1.52345
      vertex 1.20496 -14.1 -1.65848
      vertex 4.3 -14.1 -3.33067e-16
    endloop
  endfacet
  facet normal 0 -1 2.22045e-16
    outer loop
      vertex 1.20496 -14.1 -1.65848
      vertex 1.025 -14.1 -1.77535
      vertex 4.3 -14.1 -3.33067e-16
    endloop
  endfacet
  facet normal 0 -1 2.22045e-16
    outer loop
      vertex 0.83381 -14.1 -1.87277
      vertex 0.633485 -14.1 -1.94967
      vertex -2.15 -14.1 -3.72391
    endloop
  endfacet
  facet normal 0 -1 2.22045e-16
    outer loop
      vertex 0.214283 -14.1 -2.03877
      vertex 0 -14.1 -2.05
      vertex -2.15 -14.1 -3.72391
    endloop
  endfacet
  facet normal 0 -1 2.22045e-16
    outer loop
      vertex 0 -14.1 -2.05
      vertex -0.214283 -14.1 -2.03877
      vertex -2.15 -14.1 -3.72391
    endloop
  endfacet
  facet normal 0 -1 2.22045e-16
    outer loop
      vertex -0.214283 -14.1 -2.03877
      vertex -0.426219 -14.1 -2.0052
      vertex -2.15 -14.1 -3.72391
    endloop
  endfacet
  facet normal 0 -1 2.22045e-16
    outer loop
      vertex -0.633485 -14.1 -1.94967
      vertex -0.83381 -14.1 -1.87277
      vertex -2.15 -14.1 -3.72391
    endloop
  endfacet
  facet normal 0 -1 2.22045e-16
    outer loop
      vertex -1.025 -14.1 -1.77535
      vertex -1.20496 -14.1 -1.65848
      vertex -2.15 -14.1 -3.72391
    endloop
  endfacet
  facet normal 0 -1 2.22045e-16
    outer loop
      vertex 1.025 -14.1 -1.77535
      vertex 0.83381 -14.1 -1.87277
      vertex -2.15 -14.1 -3.72391
    endloop
  endfacet
  facet normal 0 -1 2.22045e-16
    outer loop
      vertex -1.52345 -14.1 -1.37172
      vertex -2.15 -14.1 -3.72391
      vertex -1.37172 -14.1 -1.52345
    endloop
  endfacet
  facet normal 0 -1 2.22045e-16
    outer loop
      vertex -1.65848 -14.1 -1.20496
      vertex -2.15 -14.1 -3.72391
      vertex -1.52345 -14.1 -1.37172
    endloop
  endfacet
  facet normal 0 -1 2.22045e-16
    outer loop
      vertex -1.77535 -14.1 -1.025
      vertex -2.15 -14.1 -3.72391
      vertex -1.65848 -14.1 -1.20496
    endloop
  endfacet
  facet normal 0 -1 2.22045e-16
    outer loop
      vertex -1.87277 -14.1 -0.83381
      vertex -2.15 -14.1 -3.72391
      vertex -1.77535 -14.1 -1.025
    endloop
  endfacet
  facet normal 0 -1 2.22045e-16
    outer loop
      vertex -1.94967 -14.1 -0.633485
      vertex -2.15 -14.1 -3.72391
      vertex -1.87277 -14.1 -0.83381
    endloop
  endfacet
  facet normal 0 -1 2.22045e-16
    outer loop
      vertex -2.0052 -14.1 -0.426219
      vertex -2.15 -14.1 -3.72391
      vertex -1.94967 -14.1 -0.633485
    endloop
  endfacet
  facet normal 0 -1 2.22045e-16
    outer loop
      vertex -2.03877 -14.1 -0.214283
      vertex -2.15 -14.1 -3.72391
      vertex -2.0052 -14.1 -0.426219
    endloop
  endfacet
  facet normal 0 -1 2.22045e-16
    outer loop
      vertex -2.05 -14.1 1.97842e-14
      vertex -2.15 -14.1 -3.72391
      vertex -2.03877 -14.1 -0.214283
    endloop
  endfacet
  facet normal 0 -1 2.22045e-16
    outer loop
      vertex -1.025 -14.1 1.77535
      vertex -0.83381 -14.1 1.87277
      vertex 2.15 -14.1 3.72391
    endloop
  endfacet
  facet normal 0 -1 2.22045e-16
    outer loop
      vertex -0.633485 -14.1 1.94967
      vertex -0.426219 -14.1 2.0052
      vertex 2.15 -14.1 3.72391
    endloop
  endfacet
  facet normal 0 -1 2.22045e-16
    outer loop
      vertex -0.426219 -14.1 -2.0052
      vertex -0.633485 -14.1 -1.94967
      vertex -2.15 -14.1 -3.72391
    endloop
  endfacet
  facet normal 0.99863 -1.16208e-17 -0.0523355
    outer loop
      vertex -2.05 0 1.66533e-14
      vertex -2.03877 0 0.214283
      vertex -2.03877 -14.1 0.214283
    endloop
  endfacet
  facet normal 0.99863 -1.16208e-17 -0.0523355
    outer loop
      vertex -2.05 -14.1 1.97842e-14
      vertex -2.05 0 1.66533e-14
      vertex -2.03877 -14.1 0.214283
    endloop
  endfacet
  facet normal 0.99863 1.16208e-17 0.0523355
    outer loop
      vertex -2.03877 -14.1 -0.214283
      vertex -2.03877 0 -0.214283
      vertex -2.05 0 1.66533e-14
    endloop
  endfacet
  facet normal 0.99863 1.16208e-17 0.0523355
    outer loop
      vertex -2.05 -14.1 1.97842e-14
      vertex -2.03877 -14.1 -0.214283
      vertex -2.05 0 1.66533e-14
    endloop
  endfacet
  facet normal 0.987689 -3.47351e-17 -0.156433
    outer loop
      vertex -2.03877 0 0.214283
      vertex -2.0052 0 0.426219
      vertex -2.0052 -14.1 0.426219
    endloop
  endfacet
  facet normal 0.987689 -3.47351e-17 -0.156433
    outer loop
      vertex -2.03877 -14.1 0.214283
      vertex -2.03877 0 0.214283
      vertex -2.0052 -14.1 0.426219
    endloop
  endfacet
  facet normal 0.965926 -5.74696e-17 -0.25882
    outer loop
      vertex -2.0052 0 0.426219
      vertex -1.94967 0 0.633485
      vertex -1.94967 -14.1 0.633485
    endloop
  endfacet
  facet normal 0.965926 -5.74696e-17 -0.25882
    outer loop
      vertex -2.0052 -14.1 0.426219
      vertex -2.0052 0 0.426219
      vertex -1.94967 -14.1 0.633485
    endloop
  endfacet
  facet normal 0.93358 -7.95741e-17 -0.35837
    outer loop
      vertex -1.94967 0 0.633485
      vertex -1.87277 0 0.83381
      vertex -1.87277 -14.1 0.83381
    endloop
  endfacet
  facet normal 0.93358 -7.95741e-17 -0.35837
    outer loop
      vertex -1.94967 -14.1 0.633485
      vertex -1.94967 0 0.633485
      vertex -1.87277 -14.1 0.83381
    endloop
  endfacet
  facet normal 0.891007 -1.00806e-16 -0.45399
    outer loop
      vertex -1.87277 0 0.83381
      vertex -1.77535 0 1.025
      vertex -1.77535 -14.1 1.025
    endloop
  endfacet
  facet normal 0.891007 -1.00806e-16 -0.45399
    outer loop
      vertex -1.87277 -14.1 0.83381
      vertex -1.87277 0 0.83381
      vertex -1.77535 -14.1 1.025
    endloop
  endfacet
  facet normal 0.838671 -1.20934e-16 -0.544638
    outer loop
      vertex -1.77535 0 1.025
      vertex -1.65848 0 1.20496
      vertex -1.65848 -14.1 1.20496
    endloop
  endfacet
  facet normal 0.838671 -1.20934e-16 -0.544638
    outer loop
      vertex -1.77535 -14.1 1.025
      vertex -1.77535 0 1.025
      vertex -1.65848 -14.1 1.20496
    endloop
  endfacet
  facet normal 0.777146 -1.39737e-16 -0.62932
    outer loop
      vertex -1.65848 0 1.20496
      vertex -1.52345 0 1.37172
      vertex -1.52345 -14.1 1.37172
    endloop
  endfacet
  facet normal 0.777146 -1.39737e-16 -0.62932
    outer loop
      vertex -1.65848 -14.1 1.20496
      vertex -1.65848 0 1.20496
      vertex -1.52345 -14.1 1.37172
    endloop
  endfacet
  facet normal 0.707107 -1.57009e-16 -0.707107
    outer loop
      vertex -1.52345 0 1.37172
      vertex -1.37172 0 1.52345
      vertex -1.37172 -14.1 1.52345
    endloop
  endfacet
  facet normal 0.707107 -1.57009e-16 -0.707107
    outer loop
      vertex -1.52345 -14.1 1.37172
      vertex -1.52345 0 1.37172
      vertex -1.37172 -14.1 1.52345
    endloop
  endfacet
  facet normal 0.62932 -1.72561e-16 -0.777146
    outer loop
      vertex -1.20496 0 1.65849
      vertex -1.20496 -14.1 1.65849
      vertex -1.37172 0 1.52345
    endloop
  endfacet
  facet normal 0.62932 -1.72561e-16 -0.777146
    outer loop
      vertex -1.37172 0 1.52345
      vertex -1.20496 -14.1 1.65849
      vertex -1.37172 -14.1 1.52345
    endloop
  endfacet
  facet normal 0.544638 -1.86222e-16 -0.838671
    outer loop
      vertex -1.025 0 1.77535
      vertex -1.025 -14.1 1.77535
      vertex -1.20496 0 1.65849
    endloop
  endfacet
  facet normal 0.544638 -1.86222e-16 -0.838671
    outer loop
      vertex -1.20496 0 1.65849
      vertex -1.025 -14.1 1.77535
      vertex -1.20496 -14.1 1.65849
    endloop
  endfacet
  facet normal 0.45399 -1.97843e-16 -0.891007
    outer loop
      vertex -0.83381 0 1.87277
      vertex -0.83381 -14.1 1.87277
      vertex -1.025 0 1.77535
    endloop
  endfacet
  facet normal 0.45399 -1.97843e-16 -0.891007
    outer loop
      vertex -1.025 0 1.77535
      vertex -0.83381 -14.1 1.87277
      vertex -1.025 -14.1 1.77535
    endloop
  endfacet
  facet normal 0.35837 -2.07296e-16 -0.93358
    outer loop
      vertex -0.633485 0 1.94967
      vertex -0.633485 -14.1 1.94967
      vertex -0.83381 0 1.87277
    endloop
  endfacet
  facet normal 0.35837 -2.07296e-16 -0.93358
    outer loop
      vertex -0.83381 0 1.87277
      vertex -0.633485 -14.1 1.94967
      vertex -0.83381 -14.1 1.87277
    endloop
  endfacet
  facet normal 0.25882 -2.14479e-16 -0.965926
    outer loop
      vertex -0.426219 0 2.0052
      vertex -0.426219 -14.1 2.0052
      vertex -0.633485 0 1.94967
    endloop
  endfacet
  facet normal 0.25882 -2.14479e-16 -0.965926
    outer loop
      vertex -0.633485 0 1.94967
      vertex -0.426219 -14.1 2.0052
      vertex -0.633485 -14.1 1.94967
    endloop
  endfacet
  facet normal 0.156433 -2.19311e-16 -0.987689
    outer loop
      vertex -0.214283 0 2.03877
      vertex -0.214283 -14.1 2.03877
      vertex -0.426219 0 2.0052
    endloop
  endfacet
  facet normal 0.156433 -2.19311e-16 -0.987689
    outer loop
      vertex -0.426219 0 2.0052
      vertex -0.214283 -14.1 2.03877
      vertex -0.426219 -14.1 2.0052
    endloop
  endfacet
  facet normal 0.0523355 -2.2174e-16 -0.99863
    outer loop
      vertex 0 0 2.05
      vertex 0 -14.1 2.05
      vertex -0.214283 0 2.03877
    endloop
  endfacet
  facet normal 0.0523355 -2.2174e-16 -0.99863
    outer loop
      vertex -0.214283 0 2.03877
      vertex 0 -14.1 2.05
      vertex -0.214283 -14.1 2.03877
    endloop
  endfacet
  facet normal -0.0523355 -2.2174e-16 -0.99863
    outer loop
      vertex 0.214283 0 2.03877
      vertex 0.214283 -14.1 2.03877
      vertex 0 0 2.05
    endloop
  endfacet
  facet normal -0.0523355 -2.2174e-16 -0.99863
    outer loop
      vertex 0 0 2.05
      vertex 0.214283 -14.1 2.03877
      vertex 0 -14.1 2.05
    endloop
  endfacet
  facet normal -0.156433 -2.19311e-16 -0.987689
    outer loop
      vertex 0.426219 0 2.0052
      vertex 0.426219 -14.1 2.0052
      vertex 0.214283 0 2.03877
    endloop
  endfacet
  facet normal -0.156433 -2.19311e-16 -0.987689
    outer loop
      vertex 0.214283 0 2.03877
      vertex 0.426219 -14.1 2.0052
      vertex 0.214283 -14.1 2.03877
    endloop
  endfacet
  facet normal -0.25882 -2.14479e-16 -0.965926
    outer loop
      vertex 0.633485 0 1.94967
      vertex 0.633485 -14.1 1.94967
      vertex 0.426219 0 2.0052
    endloop
  endfacet
  facet normal -0.25882 -2.14479e-16 -0.965926
    outer loop
      vertex 0.426219 0 2.0052
      vertex 0.633485 -14.1 1.94967
      vertex 0.426219 -14.1 2.0052
    endloop
  endfacet
  facet normal -0.35837 -2.07296e-16 -0.93358
    outer loop
      vertex 0.83381 0 1.87277
      vertex 0.83381 -14.1 1.87277
      vertex 0.633485 0 1.94967
    endloop
  endfacet
  facet normal -0.35837 -2.07296e-16 -0.93358
    outer loop
      vertex 0.633485 0 1.94967
      vertex 0.83381 -14.1 1.87277
      vertex 0.633485 -14.1 1.94967
    endloop
  endfacet
  facet normal -0.45399 -1.97843e-16 -0.891007
    outer loop
      vertex 1.025 0 1.77535
      vertex 1.025 -14.1 1.77535
      vertex 0.83381 0 1.87277
    endloop
  endfacet
  facet normal -0.45399 -1.97843e-16 -0.891007
    outer loop
      vertex 0.83381 0 1.87277
      vertex 1.025 -14.1 1.77535
      vertex 0.83381 -14.1 1.87277
    endloop
  endfacet
  facet normal -0.544638 -1.86222e-16 -0.838671
    outer loop
      vertex 1.20496 0 1.65849
      vertex 1.20496 -14.1 1.65849
      vertex 1.025 0 1.77535
    endloop
  endfacet
  facet normal -0.544638 -1.86222e-16 -0.838671
    outer loop
      vertex 1.025 0 1.77535
      vertex 1.20496 -14.1 1.65849
      vertex 1.025 -14.1 1.77535
    endloop
  endfacet
  facet normal -0.62932 -1.72561e-16 -0.777146
    outer loop
      vertex 1.37172 0 1.52345
      vertex 1.37172 -14.1 1.52345
      vertex 1.20496 0 1.65849
    endloop
  endfacet
  facet normal -0.62932 -1.72561e-16 -0.777146
    outer loop
      vertex 1.20496 0 1.65849
      vertex 1.37172 -14.1 1.52345
      vertex 1.20496 -14.1 1.65849
    endloop
  endfacet
  facet normal -0.707107 -1.57009e-16 -0.707107
    outer loop
      vertex 1.52345 0 1.37172
      vertex 1.52345 -14.1 1.37172
      vertex 1.37172 0 1.52345
    endloop
  endfacet
  facet normal -0.707107 -1.57009e-16 -0.707107
    outer loop
      vertex 1.37172 0 1.52345
      vertex 1.52345 -14.1 1.37172
      vertex 1.37172 -14.1 1.52345
    endloop
  endfacet
  facet normal -0.777146 -1.39737e-16 -0.62932
    outer loop
      vertex 1.65848 0 1.20496
      vertex 1.65848 -14.1 1.20496
      vertex 1.52345 0 1.37172
    endloop
  endfacet
  facet normal -0.777146 -1.39737e-16 -0.62932
    outer loop
      vertex 1.52345 0 1.37172
      vertex 1.65848 -14.1 1.20496
      vertex 1.52345 -14.1 1.37172
    endloop
  endfacet
  facet normal -0.838671 -1.20934e-16 -0.544638
    outer loop
      vertex 1.77535 0 1.025
      vertex 1.77535 -14.1 1.025
      vertex 1.65848 0 1.20496
    endloop
  endfacet
  facet normal -0.838671 -1.20934e-16 -0.544638
    outer loop
      vertex 1.65848 0 1.20496
      vertex 1.77535 -14.1 1.025
      vertex 1.65848 -14.1 1.20496
    endloop
  endfacet
  facet normal -0.891007 -1.00806e-16 -0.45399
    outer loop
      vertex 1.87277 0 0.83381
      vertex 1.87277 -14.1 0.83381
      vertex 1.77535 0 1.025
    endloop
  endfacet
  facet normal -0.891007 -1.00806e-16 -0.45399
    outer loop
      vertex 1.77535 0 1.025
      vertex 1.87277 -14.1 0.83381
      vertex 1.77535 -14.1 1.025
    endloop
  endfacet
  facet normal -0.93358 -7.95741e-17 -0.35837
    outer loop
      vertex 1.94967 0 0.633485
      vertex 1.94967 -14.1 0.633485
      vertex 1.87277 0 0.83381
    endloop
  endfacet
  facet normal -0.93358 -7.95741e-17 -0.35837
    outer loop
      vertex 1.87277 0 0.83381
      vertex 1.94967 -14.1 0.633485
      vertex 1.87277 -14.1 0.83381
    endloop
  endfacet
  facet normal -0.965926 -5.74696e-17 -0.25882
    outer loop
      vertex 2.0052 0 0.426219
      vertex 2.0052 -14.1 0.426219
      vertex 1.94967 0 0.633485
    endloop
  endfacet
  facet normal -0.965926 -5.74696e-17 -0.25882
    outer loop
      vertex 1.94967 0 0.633485
      vertex 2.0052 -14.1 0.426219
      vertex 1.94967 -14.1 0.633485
    endloop
  endfacet
  facet normal -0.987689 -3.47351e-17 -0.156433
    outer loop
      vertex 2.03877 0 0.214283
      vertex 2.03877 -14.1 0.214283
      vertex 2.0052 0 0.426219
    endloop
  endfacet
  facet normal -0.987689 -3.47351e-17 -0.156433
    outer loop
      vertex 2.0052 0 0.426219
      vertex 2.03877 -14.1 0.214283
      vertex 2.0052 -14.1 0.426219
    endloop
  endfacet
  facet normal -0.99863 -1.16208e-17 -0.0523355
    outer loop
      vertex 2.05 0 1.66533e-14
      vertex 2.05 -14.1 1.97842e-14
      vertex 2.03877 0 0.214283
    endloop
  endfacet
  facet normal -0.99863 -1.16208e-17 -0.0523355
    outer loop
      vertex 2.03877 0 0.214283
      vertex 2.05 -14.1 1.97842e-14
      vertex 2.03877 -14.1 0.214283
    endloop
  endfacet
  facet normal -0.99863 1.16208e-17 0.0523355
    outer loop
      vertex 2.05 0 1.66533e-14
      vertex 2.03877 0 -0.214283
      vertex 2.05 -14.1 1.97842e-14
    endloop
  endfacet
  facet normal -0.99863 1.16208e-17 0.0523355
    outer loop
      vertex 2.05 -14.1 1.97842e-14
      vertex 2.03877 0 -0.214283
      vertex 2.03877 -14.1 -0.214283
    endloop
  endfacet
  facet normal -0.987689 3.47351e-17 0.156433
    outer loop
      vertex 2.03877 0 -0.214283
      vertex 2.0052 0 -0.426219
      vertex 2.03877 -14.1 -0.214283
    endloop
  endfacet
  facet normal -0.987689 3.47351e-17 0.156433
    outer loop
      vertex 2.03877 -14.1 -0.214283
      vertex 2.0052 0 -0.426219
      vertex 2.0052 -14.1 -0.426219
    endloop
  endfacet
  facet normal -0.965926 5.74696e-17 0.25882
    outer loop
      vertex 2.0052 0 -0.426219
      vertex 1.94967 0 -0.633485
      vertex 2.0052 -14.1 -0.426219
    endloop
  endfacet
  facet normal -0.965926 5.74696e-17 0.25882
    outer loop
      vertex 2.0052 -14.1 -0.426219
      vertex 1.94967 0 -0.633485
      vertex 1.94967 -14.1 -0.633485
    endloop
  endfacet
  facet normal -0.93358 7.95741e-17 0.35837
    outer loop
      vertex 1.94967 0 -0.633485
      vertex 1.87277 0 -0.83381
      vertex 1.94967 -14.1 -0.633485
    endloop
  endfacet
  facet normal -0.93358 7.95741e-17 0.35837
    outer loop
      vertex 1.94967 -14.1 -0.633485
      vertex 1.87277 0 -0.83381
      vertex 1.87277 -14.1 -0.83381
    endloop
  endfacet
  facet normal -0.891007 1.00806e-16 0.45399
    outer loop
      vertex 1.87277 0 -0.83381
      vertex 1.77535 0 -1.025
      vertex 1.87277 -14.1 -0.83381
    endloop
  endfacet
  facet normal -0.891007 1.00806e-16 0.45399
    outer loop
      vertex 1.87277 -14.1 -0.83381
      vertex 1.77535 0 -1.025
      vertex 1.77535 -14.1 -1.025
    endloop
  endfacet
  facet normal -0.838671 1.20934e-16 0.544638
    outer loop
      vertex 1.77535 0 -1.025
      vertex 1.65848 0 -1.20496
      vertex 1.77535 -14.1 -1.025
    endloop
  endfacet
  facet normal -0.838671 1.20934e-16 0.544638
    outer loop
      vertex 1.77535 -14.1 -1.025
      vertex 1.65848 0 -1.20496
      vertex 1.65848 -14.1 -1.20496
    endloop
  endfacet
  facet normal -0.777146 1.39737e-16 0.62932
    outer loop
      vertex 1.65848 0 -1.20496
      vertex 1.52345 0 -1.37172
      vertex 1.65848 -14.1 -1.20496
    endloop
  endfacet
  facet normal -0.777146 1.39737e-16 0.62932
    outer loop
      vertex 1.65848 -14.1 -1.20496
      vertex 1.52345 0 -1.37172
      vertex 1.52345 -14.1 -1.37172
    endloop
  endfacet
  facet normal -0.707107 1.57009e-16 0.707107
    outer loop
      vertex 1.52345 0 -1.37172
      vertex 1.37172 0 -1.52345
      vertex 1.52345 -14.1 -1.37172
    endloop
  endfacet
  facet normal -0.707107 1.57009e-16 0.707107
    outer loop
      vertex 1.52345 -14.1 -1.37172
      vertex 1.37172 0 -1.52345
      vertex 1.37172 -14.1 -1.52345
    endloop
  endfacet
  facet normal -0.62932 1.72561e-16 0.777146
    outer loop
      vertex 1.37172 -14.1 -1.52345
      vertex 1.37172 0 -1.52345
      vertex 1.20496 0 -1.65848
    endloop
  endfacet
  facet normal -0.62932 1.72561e-16 0.777146
    outer loop
      vertex 1.20496 -14.1 -1.65848
      vertex 1.37172 -14.1 -1.52345
      vertex 1.20496 0 -1.65848
    endloop
  endfacet
  facet normal -0.544638 1.86222e-16 0.838671
    outer loop
      vertex 1.20496 -14.1 -1.65848
      vertex 1.20496 0 -1.65848
      vertex 1.025 0 -1.77535
    endloop
  endfacet
  facet normal -0.544638 1.86222e-16 0.838671
    outer loop
      vertex 1.025 -14.1 -1.77535
      vertex 1.20496 -14.1 -1.65848
      vertex 1.025 0 -1.77535
    endloop
  endfacet
  facet normal -0.45399 1.97843e-16 0.891007
    outer loop
      vertex 1.025 -14.1 -1.77535
      vertex 1.025 0 -1.77535
      vertex 0.83381 0 -1.87277
    endloop
  endfacet
  facet normal -0.45399 1.97843e-16 0.891007
    outer loop
      vertex 0.83381 -14.1 -1.87277
      vertex 1.025 -14.1 -1.77535
      vertex 0.83381 0 -1.87277
    endloop
  endfacet
  facet normal -0.35837 2.07296e-16 0.93358
    outer loop
      vertex 0.83381 -14.1 -1.87277
      vertex 0.83381 0 -1.87277
      vertex 0.633485 0 -1.94967
    endloop
  endfacet
  facet normal -0.35837 2.07296e-16 0.93358
    outer loop
      vertex 0.633485 -14.1 -1.94967
      vertex 0.83381 -14.1 -1.87277
      vertex 0.633485 0 -1.94967
    endloop
  endfacet
  facet normal -0.25882 2.14479e-16 0.965926
    outer loop
      vertex 0.633485 -14.1 -1.94967
      vertex 0.633485 0 -1.94967
      vertex 0.426219 0 -2.0052
    endloop
  endfacet
  facet normal -0.25882 2.14479e-16 0.965926
    outer loop
      vertex 0.426219 -14.1 -2.0052
      vertex 0.633485 -14.1 -1.94967
      vertex 0.426219 0 -2.0052
    endloop
  endfacet
  facet normal -0.156433 2.19311e-16 0.987689
    outer loop
      vertex 0.426219 -14.1 -2.0052
      vertex 0.426219 0 -2.0052
      vertex 0.214283 0 -2.03877
    endloop
  endfacet
  facet normal -0.156433 2.19311e-16 0.987689
    outer loop
      vertex 0.214283 -14.1 -2.03877
      vertex 0.426219 -14.1 -2.0052
      vertex 0.214283 0 -2.03877
    endloop
  endfacet
  facet normal -0.0523355 2.2174e-16 0.99863
    outer loop
      vertex 0.214283 -14.1 -2.03877
      vertex 0.214283 0 -2.03877
      vertex 0 0 -2.05
    endloop
  endfacet
  facet normal -0.0523355 2.2174e-16 0.99863
    outer loop
      vertex 0 -14.1 -2.05
      vertex 0.214283 -14.1 -2.03877
      vertex 0 0 -2.05
    endloop
  endfacet
  facet normal 0.0523355 2.2174e-16 0.99863
    outer loop
      vertex 0 -14.1 -2.05
      vertex 0 0 -2.05
      vertex -0.214283 0 -2.03877
    endloop
  endfacet
  facet normal 0.0523355 2.2174e-16 0.99863
    outer loop
      vertex -0.214283 -14.1 -2.03877
      vertex 0 -14.1 -2.05
      vertex -0.214283 0 -2.03877
    endloop
  endfacet
  facet normal 0.156433 2.19311e-16 0.987689
    outer loop
      vertex -0.214283 -14.1 -2.03877
      vertex -0.214283 0 -2.03877
      vertex -0.426219 0 -2.0052
    endloop
  endfacet
  facet normal 0.156433 2.19311e-16 0.987689
    outer loop
      vertex -0.426219 -14.1 -2.0052
      vertex -0.214283 -14.1 -2.03877
      vertex -0.426219 0 -2.0052
    endloop
  endfacet
  facet normal 0.25882 2.14479e-16 0.965926
    outer loop
      vertex -0.426219 -14.1 -2.0052
      vertex -0.426219 0 -2.0052
      vertex -0.633485 0 -1.94967
    endloop
  endfacet
  facet normal 0.25882 2.14479e-16 0.965926
    outer loop
      vertex -0.633485 -14.1 -1.94967
      vertex -0.426219 -14.1 -2.0052
      vertex -0.633485 0 -1.94967
    endloop
  endfacet
  facet normal 0.35837 2.07296e-16 0.93358
    outer loop
      vertex -0.633485 -14.1 -1.94967
      vertex -0.633485 0 -1.94967
      vertex -0.83381 0 -1.87277
    endloop
  endfacet
  facet normal 0.35837 2.07296e-16 0.93358
    outer loop
      vertex -0.83381 -14.1 -1.87277
      vertex -0.633485 -14.1 -1.94967
      vertex -0.83381 0 -1.87277
    endloop
  endfacet
  facet normal 0.45399 1.97843e-16 0.891007
    outer loop
      vertex -0.83381 -14.1 -1.87277
      vertex -0.83381 0 -1.87277
      vertex -1.025 0 -1.77535
    endloop
  endfacet
  facet normal 0.45399 1.97843e-16 0.891007
    outer loop
      vertex -1.025 -14.1 -1.77535
      vertex -0.83381 -14.1 -1.87277
      vertex -1.025 0 -1.77535
    endloop
  endfacet
  facet normal 0.544638 1.86222e-16 0.838671
    outer loop
      vertex -1.025 -14.1 -1.77535
      vertex -1.025 0 -1.77535
      vertex -1.20496 0 -1.65848
    endloop
  endfacet
  facet normal 0.544638 1.86222e-16 0.838671
    outer loop
      vertex -1.20496 -14.1 -1.65848
      vertex -1.025 -14.1 -1.77535
      vertex -1.20496 0 -1.65848
    endloop
  endfacet
  facet normal 0.62932 1.72561e-16 0.777146
    outer loop
      vertex -1.20496 -14.1 -1.65848
      vertex -1.20496 0 -1.65848
      vertex -1.37172 0 -1.52345
    endloop
  endfacet
  facet normal 0.62932 1.72561e-16 0.777146
    outer loop
      vertex -1.37172 -14.1 -1.52345
      vertex -1.20496 -14.1 -1.65848
      vertex -1.37172 0 -1.52345
    endloop
  endfacet
  facet normal 0.707107 1.57009e-16 0.707107
    outer loop
      vertex -1.37172 -14.1 -1.52345
      vertex -1.37172 0 -1.52345
      vertex -1.52345 0 -1.37172
    endloop
  endfacet
  facet normal 0.707107 1.57009e-16 0.707107
    outer loop
      vertex -1.52345 -14.1 -1.37172
      vertex -1.37172 -14.1 -1.52345
      vertex -1.52345 0 -1.37172
    endloop
  endfacet
  facet normal 0.777146 1.39737e-16 0.62932
    outer loop
      vertex -1.52345 -14.1 -1.37172
      vertex -1.52345 0 -1.37172
      vertex -1.65848 0 -1.20496
    endloop
  endfacet
  facet normal 0.777146 1.39737e-16 0.62932
    outer loop
      vertex -1.65848 -14.1 -1.20496
      vertex -1.52345 -14.1 -1.37172
      vertex -1.65848 0 -1.20496
    endloop
  endfacet
  facet normal 0.838671 1.20934e-16 0.544638
    outer loop
      vertex -1.65848 -14.1 -1.20496
      vertex -1.65848 0 -1.20496
      vertex -1.77535 0 -1.025
    endloop
  endfacet
  facet normal 0.838671 1.20934e-16 0.544638
    outer loop
      vertex -1.77535 -14.1 -1.025
      vertex -1.65848 -14.1 -1.20496
      vertex -1.77535 0 -1.025
    endloop
  endfacet
  facet normal 0.891007 1.00806e-16 0.45399
    outer loop
      vertex -1.77535 -14.1 -1.025
      vertex -1.77535 0 -1.025
      vertex -1.87277 0 -0.83381
    endloop
  endfacet
  facet normal 0.891007 1.00806e-16 0.45399
    outer loop
      vertex -1.87277 -14.1 -0.83381
      vertex -1.77535 -14.1 -1.025
      vertex -1.87277 0 -0.83381
    endloop
  endfacet
  facet normal 0.93358 7.95741e-17 0.35837
    outer loop
      vertex -1.87277 -14.1 -0.83381
      vertex -1.87277 0 -0.83381
      vertex -1.94967 0 -0.633485
    endloop
  endfacet
  facet normal 0.93358 7.95741e-17 0.35837
    outer loop
      vertex -1.94967 -14.1 -0.633485
      vertex -1.87277 -14.1 -0.83381
      vertex -1.94967 0 -0.633485
    endloop
  endfacet
  facet normal 0.965926 5.74696e-17 0.25882
    outer loop
      vertex -1.94967 -14.1 -0.633485
      vertex -1.94967 0 -0.633485
      vertex -2.0052 0 -0.426219
    endloop
  endfacet
  facet normal 0.965926 5.74696e-17 0.25882
    outer loop
      vertex -2.0052 -14.1 -0.426219
      vertex -1.94967 -14.1 -0.633485
      vertex -2.0052 0 -0.426219
    endloop
  endfacet
  facet normal 0.987689 3.47351e-17 0.156433
    outer loop
      vertex -2.0052 -14.1 -0.426219
      vertex -2.0052 0 -0.426219
      vertex -2.03877 0 -0.214283
    endloop
  endfacet
  facet normal 0.987689 3.47351e-17 0.156433
    outer loop
      vertex -2.03877 -14.1 -0.214283
      vertex -2.0052 -14.1 -0.426219
      vertex -2.03877 0 -0.214283
    endloop
  endfacet
endsolid OpenSCAD_Model
